# xmcd CD database file
#
# Track frame offsets:
#	150
#	33969
#	60231
#	94009
#	121296
#	125385
#	156432
#	200168
#	226182
#	261899
#
# Disc length: 3590 seconds
#
# Revision: 0
# Processed by: cddbd v1.5.2PL0 Copyright (c) Steve Scherf et al.
# Submitted via: CDex 1.70beta2
#
DISCID=800e040a
DTITLE=Samuel Jon Samuelsson Big Band - Fnykur
DYEAR=2007
DGENRE=Blues
TTITLE0=Eins hratt og hægt er
TTITLE1=Dansandi
TTITLE2=Funk mood
TTITLE3=BBQ ribs
TTITLE4=Intro
TTITLE5=Hardcore
TTITLE6=Mr Funky goes straight
TTITLE7=Boba
TTITLE8=Litið skritið
TTITLE9=Reprise
EXTD=YEAR: 2007
EXTT0=
EXTT1=
EXTT2=
EXTT3=
EXTT4=
EXTT5=
EXTT6=
EXTT7=
EXTT8=
EXTT9=
PLAYORDER=
